<svg width="213" height="46" viewBox="0 0 213 46" fill="none" xmlns="http://www.w3.org/2000/svg">
<path d="M11.6 35.6C9.23333 35.6 7.05 35.1667 5.05 34.3C3.08333 33.4 1.46667 32.1333 0.2 30.5L4.7 25.1C5.66667 26.3667 6.68333 27.3333 7.75 28C8.81667 28.6333 9.96667 28.95 11.2 28.95C14.5 28.95 16.15 27.0167 16.15 23.15V6.5H3.85V-2.38419e-06H24.2V22.7C24.2 27.0333 23.1333 30.2667 21 32.4C18.8667 34.5333 15.7333 35.6 11.6 35.6ZM44.4508 35.4C41.5841 35.4 39.0341 34.8 36.8008 33.6C34.6008 32.4 32.8508 30.7667 31.5508 28.7C30.2841 26.6 29.6508 24.2167 29.6508 21.55C29.6508 18.85 30.2841 16.4667 31.5508 14.4C32.8508 12.3 34.6008 10.6667 36.8008 9.5C39.0341 8.3 41.5841 7.7 44.4508 7.7C47.2841 7.7 49.8174 8.3 52.0508 9.5C54.2841 10.6667 56.0341 12.2833 57.3008 14.35C58.5674 16.4167 59.2008 18.8167 59.2008 21.55C59.2008 24.2167 58.5674 26.6 57.3008 28.7C56.0341 30.7667 54.2841 32.4 52.0508 33.6C49.8174 34.8 47.2841 35.4 44.4508 35.4ZM44.4508 29C45.7508 29 46.9174 28.7 47.9508 28.1C48.9841 27.5 49.8008 26.65 50.4008 25.55C51.0008 24.4167 51.3008 23.0833 51.3008 21.55C51.3008 19.9833 51.0008 18.65 50.4008 17.55C49.8008 16.45 48.9841 15.6 47.9508 15C46.9174 14.4 45.7508 14.1 44.4508 14.1C43.1508 14.1 41.9841 14.4 40.9508 15C39.9174 15.6 39.0841 16.45 38.4508 17.55C37.8508 18.65 37.5508 19.9833 37.5508 21.55C37.5508 23.0833 37.8508 24.4167 38.4508 25.55C39.0841 26.65 39.9174 27.5 40.9508 28.1C41.9841 28.7 43.1508 29 44.4508 29ZM75.7645 35.4C73.5311 35.4 71.5311 34.9667 69.7645 34.1C68.0311 33.2333 66.6811 31.9167 65.7145 30.15C64.7478 28.35 64.2645 26.0667 64.2645 23.3V8.1H72.0645V22.15C72.0645 24.3833 72.5311 26.0333 73.4645 27.1C74.4311 28.1333 75.7811 28.65 77.5145 28.65C78.7145 28.65 79.7811 28.4 80.7145 27.9C81.6478 27.3667 82.3811 26.5667 82.9145 25.5C83.4478 24.4 83.7145 23.0333 83.7145 21.4V8.1H91.5145V35H84.1145V27.6L85.4645 29.75C84.5645 31.6167 83.2311 33.0333 81.4645 34C79.7311 34.9333 77.8311 35.4 75.7645 35.4ZM98.7406 35V8.1H106.191V15.7L105.141 13.5C105.941 11.6 107.224 10.1667 108.991 9.2C110.757 8.2 112.907 7.7 115.441 7.7V14.9C115.107 14.8667 114.807 14.85 114.541 14.85C114.274 14.8167 113.991 14.8 113.691 14.8C111.557 14.8 109.824 15.4167 108.491 16.65C107.191 17.85 106.541 19.7333 106.541 22.3V35H98.7406ZM136.477 7.7C138.611 7.7 140.511 8.13333 142.177 9C143.877 9.83333 145.211 11.1333 146.177 12.9C147.144 14.6333 147.627 16.8667 147.627 19.6V35H139.827V20.8C139.827 18.6333 139.344 17.0333 138.377 16C137.444 14.9667 136.111 14.45 134.377 14.45C133.144 14.45 132.027 14.7167 131.027 15.25C130.061 15.75 129.294 16.5333 128.727 17.6C128.194 18.6667 127.927 20.0333 127.927 21.7V35H120.127V8.1H127.577V15.55L126.177 13.3C127.144 11.5 128.527 10.1167 130.327 9.15C132.127 8.18333 134.177 7.7 136.477 7.7ZM168.243 35.4C165.176 35.4 162.476 34.8 160.143 33.6C157.843 32.4 156.06 30.7667 154.793 28.7C153.526 26.6 152.893 24.2167 152.893 21.55C152.893 18.85 153.51 16.4667 154.743 14.4C156.01 12.3 157.726 10.6667 159.893 9.5C162.06 8.3 164.51 7.7 167.243 7.7C169.876 7.7 172.243 8.26667 174.343 9.4C176.476 10.5 178.16 12.1 179.393 14.2C180.626 16.2667 181.243 18.75 181.243 21.65C181.243 21.95 181.226 22.3 181.193 22.7C181.16 23.0667 181.126 23.4167 181.093 23.75H159.243V19.2H176.993L173.993 20.55C173.993 19.15 173.71 17.9333 173.143 16.9C172.576 15.8667 171.793 15.0667 170.793 14.5C169.793 13.9 168.626 13.6 167.293 13.6C165.96 13.6 164.776 13.9 163.743 14.5C162.743 15.0667 161.96 15.8833 161.393 16.95C160.826 17.9833 160.543 19.2167 160.543 20.65V21.85C160.543 23.3167 160.86 24.6167 161.493 25.75C162.16 26.85 163.076 27.7 164.243 28.3C165.443 28.8667 166.843 29.15 168.443 29.15C169.876 29.15 171.126 28.9333 172.193 28.5C173.293 28.0667 174.293 27.4167 175.193 26.55L179.343 31.05C178.11 32.45 176.56 33.5333 174.693 34.3C172.826 35.0333 170.676 35.4 168.243 35.4ZM189.348 45.1C187.948 45.1 186.564 44.8833 185.198 44.45C183.831 44.0167 182.714 43.4167 181.848 42.65L184.698 37.1C185.298 37.6333 185.981 38.05 186.748 38.35C187.548 38.65 188.331 38.8 189.098 38.8C190.198 38.8 191.064 38.5333 191.698 38C192.364 37.5 192.964 36.65 193.498 35.45L194.898 32.15L195.498 31.3L205.148 8.1H212.648L200.498 36.65C199.631 38.8167 198.631 40.5167 197.498 41.75C196.398 42.9833 195.164 43.85 193.798 44.35C192.464 44.85 190.981 45.1 189.348 45.1ZM193.948 36.05L181.948 8.1H189.998L199.298 30.6L193.948 36.05Z" fill="#040D0C"/>
</svg>
